<?xml version="1.0" encoding="UTF-8"?>
<!-- Generator: Adobe Illustrator 15.1.0, SVG Export Plug-In . SVG Version: 6.00 Build 0)  -->
<!DOCTYPE svg PUBLIC "-//W3C//DTD SVG 1.1//EN" "http://www.w3.org/Graphics/SVG/1.1/DTD/svg11.dtd">
<svg version="1.1" id="Layer_1" xmlns="http://www.w3.org/2000/svg" xmlns:xlink="http://www.w3.org/1999/xlink" x="0px" y="0px" width="241px" height="57px" viewBox="0 0 241 57" enable-background="new 0 0 241 57" xml:space="preserve">
<g>
	<path fill="#F05123" d="M187.236,52.487c0.941-5.313,1.883-10.628,2.825-15.94h9.991c1.37,0,1.903,0.624,1.693,1.976   c-0.033,0.217-0.074,0.466-0.118,0.747c-0.102,0.616-0.246,1.488-0.428,2.612c-0.182,1.126-0.417,2.548-0.708,4.269   c-0.291,1.72-0.644,3.831-1.064,6.337h-2.32h-0.036c0.743-4.498,1.49-8.994,2.233-13.493c0.16-0.952-0.217-1.397-1.183-1.397   h-0.606h-3.17c-0.218,1.455-0.435,2.909-0.649,4.363h2.693c-0.033,0.2-0.068,0.4-0.102,0.602h-2.682   c-0.049,0.325-0.097,0.652-0.146,0.978h0.883h3.41c-0.036,0.202-0.068,0.402-0.104,0.602h-3.396h-0.883   c-0.019,0.129-0.038,0.256-0.056,0.385c-0.028,0.196-0.06,0.394-0.088,0.593h2.627c-0.033,0.2-0.068,0.401-0.102,0.603h-2.617   c-0.366,2.255-0.732,4.512-1.098,6.767"/>
	<path fill="#53A5CB" d="M235.169,47.475c0.274,0,0.382,0.126,0.337,0.398c-0.248,1.537-0.498,3.072-0.749,4.608h-0.695   c-0.005-0.012-0.008-0.023-0.012-0.035c0.004-0.012,0.017-0.08,0.035-0.21c0.021-0.132,0.047-0.299,0.081-0.505   c0.03-0.204,0.066-0.436,0.106-0.695c0.04-0.26,0.082-0.524,0.123-0.795c0.095-0.601,0.2-1.281,0.318-2.04   c0.041-0.271-0.066-0.395-0.34-0.395h-1.178c-0.252,1.559-0.505,3.116-0.758,4.675h-0.734c0.238-1.426,0.476-2.852,0.713-4.275   c0.047-0.272-0.062-0.399-0.338-0.399h-1.241c-0.241,1.559-0.483,3.116-0.725,4.675h-1.511c0.286-1.669,0.574-3.337,0.86-5.007   H235.169z"/>
	<path fill="#53A5CB" d="M222.676,52.146c0.208,0,0.302-0.079,0.337-0.285c0.022-0.124,0.042-0.247,0.063-0.372   c0.021-0.116,0.043-0.248,0.064-0.39h0.748c-0.063,0.365-0.125,0.731-0.188,1.099c-0.036,0.205-0.13,0.284-0.337,0.284h-0.438   h-3.129c0.283-1.67,0.564-3.341,0.845-5.011h3.418c0.281,0,0.39,0.131,0.338,0.407c-0.097,0.5-0.191,1.002-0.286,1.503h-0.698   c0.059-0.342,0.104-0.604,0.137-0.787c0.033-0.184,0.059-0.319,0.073-0.406c0-0.01,0.002-0.018,0.005-0.026   c0.045-0.272-0.061-0.399-0.337-0.399h-1.219c-0.243,1.462-0.488,2.923-0.731,4.384H222.676z"/>
	<path fill="#53A5CB" d="M228.418,47.485h-3.087c-0.208,0-0.302,0.079-0.337,0.285c-0.25,1.439-0.501,2.879-0.749,4.32   c-0.047,0.273,0.062,0.4,0.337,0.4h2.708h0.42c0.21,0,0.305-0.081,0.34-0.287c0.235-1.44,0.472-2.881,0.706-4.32   C228.801,47.612,228.695,47.485,228.418,47.485 M227.998,48.202c-0.209,1.222-0.417,2.442-0.627,3.665   c-0.035,0.206-0.129,0.285-0.34,0.284h-0.898c-0.274,0-0.381-0.127-0.338-0.397c0.192-1.221,0.385-2.44,0.579-3.663   c0.033-0.208,0.127-0.289,0.338-0.289h0.951C227.937,47.802,228.045,47.929,227.998,48.202"/>
	<path fill="#F05123" d="M137.847,36.55h-9.99c-0.943,5.313-1.884,10.626-2.827,15.939h4.802c0.365-2.254,0.73-4.51,1.097-6.766   c1.667,0,3.335,0.001,5.003,0.001c-0.354,2.255-0.708,4.511-1.063,6.765h0.032h2.32c0.419-2.505,0.774-4.617,1.064-6.337   c0.291-1.721,0.527-3.143,0.708-4.267c0.183-1.126,0.325-1.998,0.426-2.612c0.046-0.284,0.086-0.532,0.119-0.747   C139.751,37.174,139.216,36.55,137.847,36.55 M136.134,44.527c-0.033,0.198-0.066,0.396-0.099,0.596   C136.067,44.924,136.101,44.726,136.134,44.527c-0.033,0.198-0.066,0.396-0.099,0.594h-5.014c0.028-0.197,0.058-0.396,0.087-0.594   c0.02-0.128,0.038-0.257,0.057-0.384h5.035C136.178,44.27,136.156,44.397,136.134,44.527 M136.304,43.543   c0.06-0.351,0.118-0.676,0.172-0.979C136.422,42.867,136.364,43.192,136.304,43.543l-5.049-0.001   c0.05-0.326,0.097-0.65,0.146-0.978h5.075C136.422,42.867,136.364,43.192,136.304,43.543 M137.1,38.997   c-0.069,0.411-0.137,0.82-0.207,1.23c-0.08,0.457-0.181,1.033-0.308,1.729v0.003c0,0.001,0,0.002-0.002,0.005h-5.092   c0.216-1.454,0.431-2.909,0.648-4.363h3.171h0.605C136.882,37.601,137.259,38.044,137.1,38.997"/>
	<polygon fill="#53A5CB" points="218.621,52.486 217.269,52.486 217.37,51.863 218.721,51.863  "/>
	<path fill="#F05123" d="M71.14,38.524c-0.772,4.656-1.545,9.311-2.318,13.965H66.5h-0.019c0.351-2.254,0.701-4.51,1.05-6.766H63.6   c0.035-0.2,0.071-0.4,0.104-0.601c1.31,0,2.62-0.002,3.93-0.002c0.033-0.197,0.066-0.396,0.1-0.594   c0.023-0.131,0.043-0.258,0.065-0.384h-2.383c0.036-0.201,0.071-0.4,0.105-0.602h2.383c0.061-0.35,0.118-0.675,0.171-0.978H67.13   c0.033-0.199,0.069-0.4,0.102-0.601h0.951v-0.008c0.127-0.695,0.229-1.271,0.308-1.729c0.069-0.41,0.138-0.821,0.208-1.23   c0.16-0.953-0.217-1.397-1.183-1.397h-0.607h-3.17c-0.343,2.31-0.687,4.619-1.031,6.928c-0.045,0.302-0.088,0.605-0.133,0.907   c-0.382,2.353-0.762,4.705-1.142,7.055H56.63c0.942-5.313,1.883-10.627,2.828-15.94h9.99C70.815,36.549,71.351,37.174,71.14,38.524   "/>
	<path fill="#F05123" d="M75.64,51.422c0.815-4.958,1.63-9.916,2.445-14.873h-4.567c-0.917,5.313-1.835,10.627-2.752,15.94h9.856   h1.282c0.725,0,1.053-0.274,1.18-0.989c0.004-0.027,0.011-0.058,0.016-0.085h-2.872c-0.048,0.005-0.1,0.007-0.154,0.007H75.64z"/>
	<path fill="#F05123" d="M113.612,51.413c0.728,0,1.057-0.277,1.183-0.994c0.021-0.129,0.045-0.284,0.07-0.462v-0.004   c0.03-0.217,0.066-0.455,0.107-0.715c0.043-0.259,0.084-0.522,0.125-0.788c0.074-0.503,0.159-1.052,0.257-1.651   c0.153-0.95-0.223-1.39-1.184-1.39h-1.235c0.069-0.319,0.138-0.637,0.208-0.956h3.494c0.953,0,1.326,0.435,1.185,1.377   c-0.282,1.877-0.565,3.753-0.848,5.628c-0.109,0.735-0.441,1.021-1.184,1.021h-1.288h-9.932c0.886-5.304,1.773-10.606,2.66-15.91   h10.74c0.969,0,1.345,0.448,1.183,1.402c-0.258,1.497-0.515,2.994-0.77,4.492h-2.352c0.207-1.178,0.414-2.355,0.62-3.533   c0.167-0.955-0.211-1.404-1.181-1.404h-3.733c-0.759,4.629-1.518,9.256-2.276,13.887H113.612z"/>
	<path fill="#F05123" d="M210.076,51.428c0.737,0,1.067-0.281,1.186-1.005c0.007-0.047,0.014-0.096,0.023-0.149   c0.045-0.28,0.097-0.614,0.158-1.004c0.058-0.386,0.121-0.802,0.189-1.24c0.068-0.442,0.13-0.854,0.187-1.235   c0.054-0.383,0.099-0.704,0.131-0.964c0.032-0.26,0.046-0.4,0.039-0.421h-9.766c0.5-2.938,1-5.872,1.501-8.808h4.581   c-0.432,2.634-0.864,5.267-1.295,7.898h4.146c0.732,0,1.063-0.278,1.183-1c0.384-2.299,0.767-4.598,1.152-6.898h2.351   c-0.805,4.958-1.608,9.914-2.41,14.871c-0.118,0.726-0.448,1.007-1.185,1.007h-1.292h-9.901c0.062-0.351,0.121-0.701,0.182-1.052   H210.076z"/>
	<path fill="#F05123" d="M182.414,51.425c0.727,0,1.056-0.277,1.18-0.993c0.024-0.128,0.048-0.283,0.07-0.465l0,0   c0.032-0.217,0.066-0.456,0.109-0.716c0.042-0.261,0.082-0.522,0.124-0.788c0.074-0.502,0.16-1.054,0.258-1.652   c0.153-0.949-0.224-1.39-1.184-1.39h-1.235c0.068-0.319,0.139-0.636,0.208-0.955h3.493c0.954,0,1.329,0.435,1.188,1.377   c-0.284,1.876-0.567,3.752-0.848,5.628c-0.111,0.736-0.444,1.021-1.188,1.021h-1.286h-9.932c0.887-5.304,1.775-10.605,2.66-15.91   h10.742c0.968,0,1.345,0.448,1.18,1.402c-0.254,1.496-0.512,2.994-0.77,4.491h-2.351c0.208-1.178,0.413-2.354,0.62-3.531   c0.166-0.957-0.209-1.407-1.182-1.407h-3.733c-0.758,4.63-1.518,9.258-2.276,13.888H182.414z"/>
	<path fill="#F05123" d="M171.267,39.087c0.161-0.954-0.215-1.402-1.183-1.402h-3.656c-0.797,4.931-1.596,9.862-2.394,14.795h-4.67   c0.869-5.284,1.736-10.563,2.605-15.846h10.616c0.966,0,1.34,0.443,1.185,1.395c-0.798,4.817-1.595,9.633-2.392,14.451h-2.335   c0.001-0.064,0.029-0.283,0.087-0.661c0.058-0.376,0.136-0.876,0.235-1.497c0.099-0.622,0.219-1.354,0.361-2.196   c0.143-0.846,0.298-1.77,0.468-2.773c0.17-1.002,0.351-2.071,0.546-3.209C170.913,41.153,171.087,40.134,171.267,39.087"/>
	<path fill="#F05123" d="M152.553,36.574h-9.593c-0.729,0-1.058,0.278-1.182,0.995c-0.779,4.502-1.558,9.008-2.335,13.511   c-0.166,0.956,0.211,1.404,1.18,1.404h8.472h1.248c0.734,0,1.064-0.281,1.183-1.006c0.737-4.504,1.475-9.009,2.211-13.511   C153.892,37.018,153.516,36.574,152.553,36.574 M151.324,38.994c-0.651,3.809-1.305,7.617-1.957,11.426   c-0.123,0.719-0.453,0.996-1.182,0.996h-2.642c-0.96,0-1.334-0.438-1.185-1.386c0.602-3.808,1.203-7.616,1.803-11.425   c0.115-0.73,0.446-1.011,1.185-1.011h2.796C151.112,37.595,151.489,38.041,151.324,38.994"/>
	<polygon fill="#F05123" points="123.177,52.479 123.059,52.479 118.345,52.479 121.133,36.554 125.728,36.554  "/>
	<path fill="#F05123" d="M97.116,36.574h-9.595c-0.727,0-1.057,0.278-1.18,0.995c-0.779,4.502-1.558,9.008-2.336,13.511   c-0.166,0.956,0.211,1.404,1.181,1.404h8.473h1.247c0.735,0,1.065-0.281,1.183-1.006c0.737-4.504,1.473-9.009,2.209-13.511   C98.454,37.018,98.078,36.574,97.116,36.574 M95.887,38.994c-0.652,3.809-1.305,7.617-1.958,11.426   c-0.123,0.719-0.452,0.996-1.181,0.996h-2.643c-0.958,0-1.333-0.438-1.185-1.386c0.602-3.808,1.204-7.616,1.804-11.425   c0.116-0.73,0.446-1.011,1.183-1.011h2.797C95.673,37.595,96.051,38.041,95.887,38.994"/>
	<path fill="#F05123" d="M56.282,4.527C46.268,4.516,36.254,4.505,26.241,4.493c-2.301-0.002-3.352,0.928-3.764,3.338   c-0.447,2.605-0.893,5.217-1.342,7.824c-0.521,3.045-1.044,6.088-1.564,9.133c-0.706,4.124-1.413,8.248-2.118,12.371   c-0.063,0.366,0.147,0.582,0.489,0.398c0.384-0.206,0.769-0.413,1.153-0.619c0,0,1.554-0.735,2.524-0.804c0.97-0.066,1.65,0,1.65,0   h7.954c0.045-0.003,0.088-0.007,0.132-0.01c0.872-0.097,1.2,0.294,1.274,1.124c0.073,0.825-0.172,1.266-1.036,1.362   c-1.354,0.298-2.708,0.595-4.06,0.893c-0.004,0-0.009,0.002-0.014,0.003c-0.024,0.002-0.03,0.014-0.03,0.035   c0,0.023,0.009,0.035,0.033,0.035c0.003,0,0.008,0,0.011,0.002c0.673,0.124,1.346,0.248,2.017,0.374   c0.437,0.08,0.846,0.073,1.28-0.024c2.365-0.531,4.731-1.063,7.098-1.594c0.899-0.27,1.323,0.079,1.532,0.953   c0.208,0.859,0.017,1.357-0.866,1.622c-3.625,1.228-7.25,2.453-10.876,3.681c-1.01,0.342-2.01,0.509-3.078,0.509h-8.548v-0.003   h-0.001C11.957,45.098,7.823,45.1,3.688,45.1H5.4h1.712H5.4H3.688c-0.036,0.201-0.07,0.401-0.104,0.601h12.403   c-0.026,0.159-0.053,0.317-0.08,0.476c-0.093,0.543-0.187,1.088-0.279,1.631c-0.419,2.436,1.323,4.657,3.649,4.66   c10.015,0.012,20.027,0.021,30.041,0.032c2.3,0.004,3.35-0.927,3.763-3.335c0.377-2.193,0.754-4.386,1.129-6.581   c0.398-2.335,0.8-4.674,1.2-7.01c0.554-3.238,1.109-6.475,1.664-9.712c0.069-0.408-0.271-0.642-0.571-0.336   c-1.534,1.549-3.068,3.097-4.602,4.646c-0.591,0.638-1.554,0.617-2.121-0.042c-0.69-0.801-0.683-1.424,0.037-2.201   c0.898-1.14,1.798-2.28,2.697-3.42c0.168-0.214,0.187-0.479-0.132-0.478H37.578c-1.043,0-1.385-0.5-1.385-1.493   c0-0.994,0.342-1.496,1.385-1.496h4.697c0.978,0,1.392-0.41,1.643-1.317c0.604-2.189,1.207-4.379,1.811-6.567   c0.251-0.908,0.665-1.318,1.642-1.318h3.824h6.204c0.26,0.002,0.661,0.052,0.974,0.104c0.284,0.046,0.497,0.096,0.687,0.148   c0.262,0.075,0.38-0.033,0.424-0.289c0.149-0.872,0.3-1.744,0.449-2.616C60.349,6.752,58.61,4.53,56.282,4.527 M42.929,36.611   h0.036c0.435,0,0.603-0.192,0.674-0.605c0.288-1.688,0.578-3.379,0.867-5.069c0.255-1.496,0.513-2.994,0.771-4.488   c0.061-0.368,0.224-0.526,0.604-0.444c0.375,0.081,0.468,0.283,0.405,0.645c-0.256,1.497-0.514,2.992-0.769,4.49   c-0.29,1.689-0.579,3.38-0.868,5.069c-0.177,1.03-0.595,1.512-1.684,1.512h-0.036H36.08c-0.387,0-0.514-0.186-0.514-0.555   c0-0.367,0.126-0.554,0.514-0.554H42.929z M39.504,20.374h-6.388c-0.437,0-0.604,0.193-0.675,0.604   c-0.467,2.729-0.935,5.456-1.401,8.182c-0.278,1.623-0.556,3.245-0.833,4.868c0,0.375-0.129,0.563-0.522,0.563   c-0.395,0-0.522-0.188-0.522-0.563c0.289-1.69,0.579-3.378,0.867-5.068c0.467-2.728,0.936-5.454,1.403-8.183   c0.176-1.029,0.594-1.51,1.684-1.51h6.388c0.386,0,0.514,0.186,0.514,0.554C40.018,20.188,39.891,20.374,39.504,20.374"/>
	<polygon fill="#F05123" points="5.265,44.288 5.369,43.687 16.229,43.687 16.124,44.288  "/>
	<polygon fill="#F05123" points="16.499,42.107 16.396,42.71 6.978,42.71 7.083,42.107  "/>
</g>
</svg>